<svg xmlns="http://www.w3.org/2000/svg" width="32" height="32" viewBox="-30 -934 1168 1168">
  <rect x="-30" y="-934" width="1168" height="1168" fill="#ffffff"/>
  <g transform="scale(1,-1)" fill="#3C3732">
    <path d="M518 690V626Q518 616 508 616H317Q313 616 313 612V10Q313 0 303 0H227Q217 0 217 10V612Q217 616 213 616H30Q20 616 20 626V690Q20 700 30 700H508Q518 700 518 690Z"/>
    <path d="M89 700H165Q175 700 175 690V371Q175 369 177.0 368.5Q179 368 180 370L466 694Q470 700 478 700H564Q570 700 572.0 696.5Q574 693 570 688L332 407Q331 404 332 401L588 12Q590 8 590 6Q590 0 582 0H495Q488 0 483 6L267 333Q266 335 264.0 335.0Q262 335 261 334L177 240Q175 236 175 235V10Q175 0 165 0H89Q79 0 79 10V690Q79 700 89 700Z" transform="translate(498, 0)"/>
  </g>
</svg>
